<svg width="202" height="191" viewBox="0 0 202 191" fill="none" xmlns="http://www.w3.org/2000/svg">
<path fill-rule="evenodd" clip-rule="evenodd" d="M49.3727 0.721802C22.4852 0.721802 0.688477 22.5185 0.688477 49.406V142.038C0.688477 168.925 22.4851 190.722 49.3727 190.722H54.7821C81.6696 190.722 103.466 168.925 103.466 142.038V49.406C103.466 22.5185 81.6696 0.721802 54.7821 0.721802H49.3727Z" fill="#FFF2E3"/>
<path fill-rule="evenodd" clip-rule="evenodd" d="M147.694 0.721802C120.807 0.721802 99.0103 22.5185 99.0103 49.406V142.038C99.0103 168.925 120.807 190.722 147.694 190.722H153.104C179.991 190.722 201.788 168.925 201.788 142.038V49.406C201.788 22.5185 179.991 0.721802 153.104 0.721802H147.694Z" fill="#FFF2E3"/>
<path fill-rule="evenodd" clip-rule="evenodd" d="M54.7821 16.9499H49.3727C31.4477 16.9499 16.9166 31.481 16.9166 49.406V142.038C16.9166 159.963 31.4477 174.494 49.3727 174.494H54.7821C72.7071 174.494 87.2382 159.963 87.2382 142.038V49.406C87.2382 31.481 72.7071 16.9499 54.7821 16.9499ZM49.3727 0.721802C22.4852 0.721802 0.688477 22.5185 0.688477 49.406V142.038C0.688477 168.925 22.4851 190.722 49.3727 190.722H54.7821C81.6696 190.722 103.466 168.925 103.466 142.038V49.406C103.466 22.5185 81.6696 0.721802 54.7821 0.721802H49.3727Z" fill="black"/>
<path fill-rule="evenodd" clip-rule="evenodd" d="M153.104 16.9499H147.694C129.769 16.9499 115.238 31.481 115.238 49.406V142.038C115.238 159.963 129.769 174.494 147.694 174.494H153.104C171.029 174.494 185.56 159.963 185.56 142.038V49.406C185.56 31.481 171.029 16.9499 153.104 16.9499ZM147.694 0.721802C120.807 0.721802 99.0103 22.5185 99.0103 49.406V142.038C99.0103 168.925 120.807 190.722 147.694 190.722H153.104C179.991 190.722 201.788 168.925 201.788 142.038V49.406C201.788 22.5185 179.991 0.721802 153.104 0.721802H147.694Z" fill="black"/>
<path fill-rule="evenodd" clip-rule="evenodd" d="M72.8147 65.0948C55.886 65.0948 42.1626 78.8182 42.1626 95.7469V97.5759C42.1626 99.2477 42.9356 100.826 44.2565 101.85L62.9675 116.364C65.7594 118.53 65.7594 122.747 62.9675 124.912L44.2565 139.426C42.9356 140.451 42.1626 142.029 42.1626 143.7V145.529C42.1626 162.458 55.886 176.181 72.8147 176.181C89.7434 176.181 103.467 162.458 103.467 145.529V95.7469C103.467 78.8182 89.7434 65.0948 72.8147 65.0948Z" fill="black"/>
<path fill-rule="evenodd" clip-rule="evenodd" d="M171.136 65.0948C154.207 65.0948 140.484 78.8182 140.484 95.7469V97.5759C140.484 99.2477 141.257 100.826 142.578 101.85L161.289 116.364C164.081 118.53 164.081 122.747 161.289 124.912L142.578 139.426C141.257 140.451 140.484 142.029 140.484 143.7V145.529C140.484 162.458 154.207 176.181 171.136 176.181C188.065 176.181 201.788 162.458 201.788 145.529V95.7469C201.788 78.8182 188.065 65.0948 171.136 65.0948Z" fill="black"/>
</svg>
