<svg width="187" height="190" viewBox="0 0 187 190" fill="none" xmlns="http://www.w3.org/2000/svg">
<path fill-rule="evenodd" clip-rule="evenodd" d="M50.9751 8H45.9751C25.5406 8 8.9751 24.5655 8.9751 45V145C8.9751 165.435 25.5406 182 45.9751 182H50.9751C71.4096 182 87.9751 165.435 87.9751 145V45C87.9751 24.5655 71.4096 8 50.9751 8ZM45.9751 0C21.1223 0 0.975098 20.1472 0.975098 45V145C0.975098 169.853 21.1223 190 45.9751 190H50.9751C75.8279 190 95.9751 169.853 95.9751 145V45C95.9751 20.1472 75.8279 0 50.9751 0H45.9751Z" fill="black"/>
<path fill-rule="evenodd" clip-rule="evenodd" d="M141.855 8H136.855C116.421 8 99.8555 24.5655 99.8555 45V145C99.8555 165.435 116.421 182 136.855 182H141.855C162.29 182 178.855 165.435 178.855 145V45C178.855 24.5655 162.29 8 141.855 8ZM136.855 0C112.003 0 91.8555 20.1472 91.8555 45V145C91.8555 169.853 112.003 190 136.855 190H141.855C166.708 190 186.855 169.853 186.855 145V45C186.855 20.1472 166.708 0 141.855 0H136.855Z" fill="black"/>
<path fill-rule="evenodd" clip-rule="evenodd" d="M67.6426 73.8799C51.9951 73.8799 39.3102 86.5648 39.3102 102.212V103.903C39.3102 105.448 40.0247 106.907 41.2456 107.854L58.5406 121.269C61.1212 123.271 61.1212 127.169 58.5406 129.171L41.2456 142.586C40.0247 143.533 39.3102 144.992 39.3102 146.537V148.228C39.3102 163.875 51.9951 176.56 67.6426 176.56C83.2902 176.56 95.9751 163.875 95.9751 148.227V102.212C95.9751 86.5648 83.2902 73.8799 67.6426 73.8799Z" fill="black"/>
<path fill-rule="evenodd" clip-rule="evenodd" d="M158.523 73.8799C142.875 73.8799 130.19 86.5648 130.19 102.212V103.903C130.19 105.448 130.905 106.907 132.126 107.854L149.421 121.269C152.001 123.271 152.001 127.169 149.421 129.171L132.126 142.586C130.905 143.533 130.19 144.992 130.19 146.537V148.228C130.19 163.875 142.875 176.56 158.523 176.56C174.17 176.56 186.855 163.875 186.855 148.227V102.212C186.855 86.5648 174.17 73.8799 158.523 73.8799Z" fill="black"/>
</svg>
