<svg width="59" height="60" viewBox="0 0 59 60" fill="none" xmlns="http://www.w3.org/2000/svg">
<path fill-rule="evenodd" clip-rule="evenodd" d="M14.8704 3.95582H16.4354C22.14 3.95582 26.7645 8.58034 26.7645 14.285V24.9454C25.3197 23.9244 23.5561 23.3245 21.6524 23.3245C16.7546 23.3245 12.7842 27.2949 12.7842 32.1927V32.7219C12.7842 33.2055 13.0078 33.662 13.39 33.9585L18.8034 38.1576C19.6111 38.7841 19.6111 40.0042 18.8034 40.6308L13.39 44.8299C13.0078 45.1263 12.7842 45.5828 12.7842 46.0665V46.5956C12.7842 50.9115 15.8672 54.5073 19.9511 55.3008C18.8537 55.698 17.6698 55.9145 16.4354 55.9145H14.8704C9.16572 55.9145 4.54121 51.29 4.54121 45.5854V14.285C4.54121 8.58033 9.16572 3.95582 14.8704 3.95582ZM43.3163 59.6706C37.0321 59.6706 31.7092 55.5552 29.8954 49.8725C29.838 50.0168 29.7769 50.1593 29.7123 50.2997C27.7732 55.7603 22.561 59.6706 16.4354 59.6706H14.8704C7.09131 59.6706 0.785156 53.3644 0.785156 45.5854V14.285C0.785156 6.50592 7.09131 0.199768 14.8704 0.199768H16.4354C22.7423 0.199768 28.0811 4.34503 29.8758 10.0597C31.6706 4.34503 37.0094 0.199768 43.3163 0.199768H44.8813C52.6604 0.199768 58.9665 6.50593 58.9665 14.285V45.5854C58.9665 45.5965 58.9665 45.6075 58.9665 45.6186V46.5956C58.9665 47.9179 58.6771 49.1725 58.1582 50.2997C56.2192 55.7603 51.0069 59.6706 44.8813 59.6706H43.3163ZM55.2105 24.9454C53.7657 23.9244 52.002 23.3245 50.0983 23.3245C45.2005 23.3245 41.2301 27.2949 41.2301 32.1927V32.7219C41.2301 33.2055 41.4538 33.662 41.8359 33.9585L47.2493 38.1576C48.0571 38.7841 48.0571 40.0042 47.2493 40.6308L41.8359 44.8299C41.4538 45.1263 41.2301 45.5828 41.2301 46.0665V46.5956C41.2301 50.9115 44.3132 54.5073 48.3971 55.3008C47.2997 55.698 46.1158 55.9145 44.8813 55.9145H43.3163C37.6117 55.9145 32.9872 51.29 32.9872 45.5854V14.285C32.9872 8.58034 37.6117 3.95582 43.3163 3.95582H44.8813C50.586 3.95582 55.2105 8.58034 55.2105 14.285V24.9454Z" fill="black"/>
</svg>
